<?xml version="1.0" encoding="UTF-8" standalone="no"?>
<!-- Created with Inkscape (http://www.inkscape.org/) -->

<svg
   xmlns:dc="http://purl.org/dc/elements/1.1/"
   xmlns:cc="http://creativecommons.org/ns#"
   xmlns:rdf="http://www.w3.org/1999/02/22-rdf-syntax-ns#"
   xmlns:svg="http://www.w3.org/2000/svg"
   xmlns="http://www.w3.org/2000/svg"
   xmlns:sodipodi="http://sodipodi.sourceforge.net/DTD/sodipodi-0.dtd"
   xmlns:inkscape="http://www.inkscape.org/namespaces/inkscape"
   width="360"
   height="180"
   id="svg2850"
   version="1.1"
   inkscape:version="0.47pre4 "
   sodipodi:docname="New document 2">
  <defs
     id="defs2852">
    <inkscape:perspective
       sodipodi:type="inkscape:persp3d"
       inkscape:vp_x="0 : 526.18109 : 1"
       inkscape:vp_y="0 : 1000 : 0"
       inkscape:vp_z="744.09448 : 526.18109 : 1"
       inkscape:persp3d-origin="372.04724 : 350.78739 : 1"
       id="perspective2858" />
    <inkscape:perspective
       id="perspective2844"
       inkscape:persp3d-origin="0.5 : 0.33333333 : 1"
       inkscape:vp_z="1 : 0.5 : 1"
       inkscape:vp_y="0 : 1000 : 0"
       inkscape:vp_x="0 : 0.5 : 1"
       sodipodi:type="inkscape:persp3d" />
  </defs>
  <sodipodi:namedview
     id="base"
     pagecolor="#ffffff"
     bordercolor="#666666"
     borderopacity="1.0"
     inkscape:pageopacity="0.0"
     inkscape:pageshadow="2"
     inkscape:zoom="1.3111111"
     inkscape:cx="180"
     inkscape:cy="90.000001"
     inkscape:document-units="px"
     inkscape:current-layer="layer1"
     showgrid="false"
     inkscape:window-width="925"
     inkscape:window-height="481"
     inkscape:window-x="22"
     inkscape:window-y="29"
     inkscape:window-maximized="0" />
  <metadata
     id="metadata2855">
    <rdf:RDF>
      <cc:Work
         rdf:about="">
        <dc:format>image/svg+xml</dc:format>
        <dc:type
           rdf:resource="http://purl.org/dc/dcmitype/StillImage" />
        <dc:title></dc:title>
      </cc:Work>
    </rdf:RDF>
  </metadata>
  <g
     inkscape:label="Layer 1"
     inkscape:groupmode="layer"
     id="layer1"
     transform="translate(-2.7262599e-5,-872.36218)">
    <g
       id="g2936"
       transform="matrix(3.5859579,0,0,2.9937234,-10213.669,-557.88679)"
       style="fill:#000000">
      <path
         id="path2918"
         d="m 2905.6875,477.75 c -0.3761,0.0177 -1.0639,0.29819 -2.5,0.9375 l -2.25,1 -3.0625,-0.125 c -2.4666,-0.0983 -3.4704,-0.004 -5.1875,0.40625 l -2.125,0.5 -1.1875,-0.59375 c -1.2866,-0.65139 -3.8998,-1.31895 -4.1562,-1.0625 -0.089,0.0889 0.3638,1.65307 1,3.46875 0.9933,2.83549 1.1172,3.41123 0.9062,4.1875 -0.357,1.31327 -0.073,4.34367 0.5312,5.71875 0.2875,0.65373 0.8725,1.59254 1.3126,2.09375 0.44,0.50122 0.8124,0.97838 0.8124,1.0625 0,0.38823 -1.6538,0.9375 -2.8124,0.9375 -1.4478,0 -1.6587,-0.13146 -4.9688,-3.25 -2.7884,-2.62702 -4.1857,-3.30293 -6.8125,-3.3125 -2.6584,-0.01 -4.2771,0.52034 -7.9687,2.625 -3.3235,1.89472 -5.0365,2.75354 -13.0626,6.4375 -3.427,1.57297 -5.8569,2.82939 -5.9062,3.0625 -0.052,0.24495 0.103,0.375 0.4062,0.375 1.14,0 3.2284,0.86326 4.4688,1.84375 l 1.3125,1.0625 1.2187,-0.34375 c 0.6605,-0.19066 2.0298,-0.34251 3.0313,-0.34375 1.5834,-0.002 2.0629,0.10372 3.75,0.9375 2.3738,1.17319 4.8867,3.45354 6.5625,5.90625 0.6846,1.00196 1.3818,1.75453 1.5312,1.6875 3.5105,-1.57443 4.928,-1.87762 6.5626,-1.4375 1.4394,0.38761 3.2126,2.00192 4,3.6875 0.6797,1.45522 1.4374,4.34616 1.4374,5.40625 0,1.42954 0.1927,1.49136 1.9063,0.5625 1.9096,-1.03508 4.5502,-1.90625 5.7813,-1.90625 3.0934,0 4.017,2.94301 2.6562,8.34375 -0.4767,1.892 -0.5057,2.33603 -0.2188,2.53125 0.4433,0.30138 2.6699,0.0852 4.0626,-0.40625 1.0581,-0.37336 1.0624,-0.37382 1.0624,0.21875 0,0.90889 0.7425,4.99836 1.1876,6.53125 0.2163,0.74563 0.461,1.375 0.5312,1.375 0.5157,0 2.9375,-6.77814 2.9375,-8.21875 l 0,-0.59375 0.9687,0.65625 c 1.4507,0.95561 2.8283,1.48459 3.0313,1.15625 0.093,-0.15114 0.026,-1.82298 -0.1563,-3.71875 -0.3939,-4.10657 -0.1341,-5.97614 0.9688,-6.84375 0.3647,-0.28683 0.7975,-0.53125 0.9688,-0.53125 0.7091,0 3.4816,1.62943 4.8437,2.84375 0.8039,0.71666 1.569,1.28125 1.7187,1.28125 0.5827,0 0.8625,-1.21168 1.2188,-5.4375 0.2035,-2.41405 0.4931,-4.9272 0.6562,-5.59375 0.385,-1.57212 1.3239,-3.40739 2.0938,-4.125 1.4488,-1.3505 4.2611,-1.74274 6.8125,-0.96875 1.7463,0.52975 1.843,0.50395 2.0313,-0.5 0.091,-0.48713 0.5709,-1.67359 1.0624,-2.65625 2.107,-4.21144 6.6888,-6.76799 12.1876,-6.78125 l 1.8437,0 2.875,-3.5 c 2.9314,-3.57715 3.5165,-4.46966 2.7813,-4.1875 -0.5678,0.21787 -5.6823,-0.24837 -9.625,-0.875 -1.8464,-0.29344 -5.7941,-1.14984 -8.7813,-1.90625 -6.7909,-1.71956 -10.4302,-2.30135 -12.4687,-1.96875 -2.0125,0.32832 -2.515,0.55393 -4.3126,1.90625 -1.6984,1.27792 -2.4798,2.16541 -4.4687,5.125 -0.7274,1.08243 -1.5174,2.06697 -1.75,2.15625 -0.4544,0.17433 -2.4375,0.22493 -2.4375,0.0625 0,-0.0539 0.2774,-0.73721 0.625,-1.5 1.3185,-2.8932 1.3326,-6.40119 0.031,-8.96875 -0.5421,-1.06986 -0.5792,-1.26844 -0.25,-1.71875 0.5498,-0.75184 1.4239,-3.73385 1.25,-4.28125 -0.091,-0.28505 -0.1762,-0.45129 -0.4687,-0.4375 z m -6,6 c 1.6085,-0.0611 2.8882,1.77077 2.125,3.5 -0.5739,1.30013 -1.0513,1.47758 -1.2813,0.46875 -0.257,-1.12815 -1.2287,-1.54961 -2.2187,-0.96875 -0.7278,0.42705 -0.7481,0.43196 -0.8437,-0.25 -0.1465,-1.04538 0.5372,-2.20848 1.5312,-2.59375 0.2387,-0.0925 0.4577,-0.14752 0.6875,-0.15625 z m -7.6563,0.28125 c 0.2825,-0.013 0.5767,0.0407 0.875,0.15625 0.9941,0.38527 1.6778,1.54837 1.5313,2.59375 -0.096,0.68195 -0.1159,0.67705 -0.8437,0.25 -0.99,-0.58085 -1.9618,-0.12815 -2.2188,1 -0.2299,1.00884 -0.7073,0.83137 -1.2812,-0.46875 -0.736,-1.66748 0.4117,-3.4613 1.9374,-3.53125 z"
         style="fill:#000000" />
    </g>
  </g>
</svg>
