<svg xmlns="http://www.w3.org/2000/svg" viewBox="0 0 46.98 37.44"><defs><style>.cls-1{stroke:#000;stroke-miterlimit:10;stroke-width:0.5px;}</style></defs><g id="Layer_2" data-name="Layer 2"><g id="Layer_1-2" data-name="Layer 1"><path class="cls-1" d="M33.43,16.08l-3.22,3.67c-.19-.47-.32-.72-.4-1-.45-1.51-.86-3-1.35-4.53a1.63,1.63,0,0,0-.73-.88c-2.12-1.07-4.27-2.09-6.4-3.13a6.79,6.79,0,0,1-.74-.43V9.51L46.65.38a6.71,6.71,0,0,1-.21,1C44.33,7,42.2,12.7,40.1,18.38c-.24.66-.51.7-1.08.41C37.19,17.88,35.35,17,33.43,16.08Zm-1.34-1.3,7.38,3.57L45.53,2.2l-.14-.08Zm-10.42-5c2.19,1.07,4.18,2,6.15,3a1.11,1.11,0,0,0,1.34-.11c3.21-2.3,6.45-4.57,9.67-6.86L44.08,2,44,1.92ZM42.34,4.22c-.2,0-.26,0-.3,0q-6.39,4.53-12.79,9.06a.71.71,0,0,0-.24.6c.37,1.37.78,2.72,1.25,4.3.27-.85.51-1.46.65-2.1a4.32,4.32,0,0,1,1.41-2.34C35.65,10.62,38.94,7.46,42.34,4.22ZM31.78,15.28l-.72,2.38.14.06,1.66-1.89Z"/><path d="M27.45,20.88c-.85,2.95-3.48,9.54-7.57,6.45A2.11,2.11,0,0,1,19,24.84a1.39,1.39,0,0,1,2.31-.56c1.19,1.22,1,3.35.28,4.75-1.72,3.53-6,4-9.46,3.14-.62-.16-2.44-.55-2.39-1.46s1.48-.94,2.05-1c3-.21,2.07,3.55.63,4.82-3.31,2.91-8.65,1.05-11.14-2-.61-.75-1.67.32-1.06,1.06a10.43,10.43,0,0,0,7.61,3.79c2.8.11,5.89-1.06,7.05-3.79,1-2.43.06-5.53-2.94-5.42C10.05,28.29,7,29.61,8.6,32c1.44,2.08,5.59,2.3,7.82,2a8,8,0,0,0,6.42-4.2c1-2.09,1.15-5-.66-6.74s-4.5-.19-4.83,2c-.44,3,3.08,5,5.65,4.45,3.39-.69,5.06-5.34,5.9-8.23a.75.75,0,0,0-1.45-.4Z"/></g></g></svg>