<svg xmlns="http://www.w3.org/2000/svg" viewBox="0 0 40 40"><g id="Layer_2" data-name="Layer 2"><g id="Layer_1-2" data-name="Layer 1"><path d="M29,0H11A11,11,0,0,0,0,11V29A11,11,0,0,0,11,40H29A11,11,0,0,0,40,29V11A11,11,0,0,0,29,0ZM13.87,19.84l.16,0L26.5,22.76a3.35,3.35,0,0,1,.54.12L27,23l0,.12L26.45,23a1.17,1.17,0,0,0-1,.29,2.25,2.25,0,0,0-.54,1.43v.06c.06.65,0,.66-.06.7l-.09,0-.06-.07a1.78,1.78,0,0,1,0-.72c-.12-1.13-.63-1.15-1.32-1.17a1.93,1.93,0,0,1-1.45-.46.54.54,0,0,0-.46-.17c-1,.1-2.34,2.13-2.35,2.15l0,0H19a3.86,3.86,0,0,1-3.37-.65C13.89,23,13.87,20.12,13.87,20Zm2.88-1.34v-5a.75.75,0,0,1,1.5,0v5a.75.75,0,0,1-1.5,0Zm9-4.35-1,5a.75.75,0,0,1-.73.6h-.15a.76.76,0,0,1-.59-.89l1-5a.75.75,0,1,1,1.47.3ZM37,29a8.05,8.05,0,0,1-6.59,7.91c-.2-2.45-3.57-6.34-5.13-8a10.33,10.33,0,0,0,2-16.19l1.64-1.23a2.69,2.69,0,0,0,1.72.63,2.8,2.8,0,1,0-2.37-1.39L26.53,12a10.31,10.31,0,0,0-12.48-.44h0L11,9.25a2,2,0,0,0,.13-.7,1.91,1.91,0,1,0-1.9,1.9,1.87,1.87,0,0,0,1.16-.4l2.84,2.13h0a10.33,10.33,0,0,0,.38,15.92c-2.75,1.37-5.6,6-6.39,7.94A8.07,8.07,0,0,1,3,29V11a8,8,0,0,1,8-8H29a8.05,8.05,0,0,1,8,8Z"/></g></g></svg>