<svg xmlns="http://www.w3.org/2000/svg" viewBox="0 0 46.77 33"><defs><style>.cls-1,.cls-2,.cls-3,.cls-4{stroke:#000;stroke-miterlimit:10;}.cls-2{stroke-width:0.8px;}.cls-3{stroke-width:0.6px;}.cls-4{fill:none;}</style></defs><g id="Layer_2" data-name="Layer 2"><g id="Layer_1-2" data-name="Layer 1"><path class="cls-1" d="M24.53.5a6.09,6.09,0,0,1,2,.63,7.19,7.19,0,0,1,3.4,3.48l.27.57c.38-.11.74-.24,1.1-.32A6.53,6.53,0,0,1,38.64,8.3c.18.36.19.34.6.3A6.54,6.54,0,0,1,42.49,9a6.08,6.08,0,0,1,3.77,5.94,5.91,5.91,0,0,1-2.33,4.36,5.76,5.76,0,0,1-4.11,1.24l-.37,0h-.14c-.08.41-.15.8-.24,1.2a9.09,9.09,0,0,1-14,5.31.51.51,0,0,0-.61,0,12.27,12.27,0,0,1-2.22.86,7.36,7.36,0,0,1-8.66-5.22c-.16-.58-.17-.59-.75-.54a5,5,0,0,1-3.34-.77,4.91,4.91,0,0,1-2.31-3.45A4.9,4.9,0,0,1,9,13a9.61,9.61,0,0,1,1.09-.7.44.44,0,0,0,.24-.33,5.81,5.81,0,0,1,3.18-4.38A5.49,5.49,0,0,1,16,7h.36a13,13,0,0,1,.26-1.33A7.17,7.17,0,0,1,22,.57L22.38.5ZM38.78,19.82l.91.05a5.38,5.38,0,0,0,5.1-8.22A5.36,5.36,0,0,0,39,9.27.53.53,0,0,1,38.31,9c-.13-.2-.23-.42-.34-.63a5.88,5.88,0,0,0-6-3,17,17,0,0,0-1.67.42c-.32.08-.46,0-.62-.23a6.8,6.8,0,0,1-.39-.76A6.43,6.43,0,0,0,25,1.24a10.7,10.7,0,0,0-2-.11,4.47,4.47,0,0,0-2.52.65,6.45,6.45,0,0,0-3.41,4.64c-.06.38-.09.77-.14,1.19a11.33,11.33,0,0,0-1.43,0A5.18,5.18,0,0,0,11,12a1.15,1.15,0,0,1-.7.93A4.41,4.41,0,0,0,7.72,17,4.59,4.59,0,0,0,11,21.28a5.9,5.9,0,0,0,2.33.09c.41-.05.54,0,.69.4s.16.5.23.75a6.73,6.73,0,0,0,8,4.64,11.78,11.78,0,0,0,2.18-.9.63.63,0,0,1,.76,0,8.48,8.48,0,0,0,13.36-5.12C38.62,20.74,38.7,20.29,38.78,19.82Z"/><path class="cls-2" d="M10.71,30.7a2.54,2.54,0,1,1,2.58-2.5A2.58,2.58,0,0,1,10.71,30.7ZM8.87,28.15a1.88,1.88,0,1,0,1.9-1.87A1.91,1.91,0,0,0,8.87,28.15Z"/><path class="cls-3" d="M6.13,32.7a1.6,1.6,0,0,1,0-3.19,1.57,1.57,0,0,1,1.57,1.6A1.6,1.6,0,0,1,6.13,32.7Zm0-2.53a.94.94,0,0,0,0,1.87,1,1,0,0,0,.94-.93A.92.92,0,0,0,6.15,30.17Z"/><path class="cls-4" d="M.42,8.5S3.2,12.68,2.5,14.07s2.09-7,2.79-4.87"/><path class="cls-4" d="M6.27,4.5S8.57,8,8,9.1s1.72-5.75,2.3-4"/></g></g></svg>
